<svg width="100" height="31" viewBox="0 0 100 31" fill="none" xmlns="http://www.w3.org/2000/svg">
<path d="M98.0163 4.64245L97.5111 7.695L95.3325 7.13975L91.2069 4.0431L90.8983 6.6913L89.0359 5.9894L87.104 8.4511L84.6441 6.46071L80.287 5.35022L77.7998 7.44316L74.7422 4.16428L69.9842 1.36093L69.3671 6.65733L67.6242 6.21313L67.3156 8.86132L64.42 6.75988L58.1233 5.60954L58.4124 9.54623L54.2867 6.44959L50.6044 5.96555L49.5439 8.64935L46.3244 4.19301L45.8192 7.24555L41.8978 6.24611L40.5983 8.41451L38.8054 4.54901L35.0459 4.72702L35.5393 10.7609L32.3698 9.72586L33.804 12.8183L29.2503 12.1121L29.6241 17.8883L27.9312 20.8654L25.1974 19.9414L19.9961 14.5255L19.8918 19.2709L16.8342 15.992L14.3547 20.5865L13.0399 17.7518L10.0671 16.3124L11.8599 20.1779L10.969 26.5407L8.34712 23.3728L6.28047 20.5737L6.16857 22.8176L2.16241 19.9786L1.53766 22.7735L2.50908 29.8382" stroke="#16A34A" stroke-width="2" stroke-linecap="round" stroke-linejoin="round"/>
</svg>
